<svg width="420" height="110" viewBox="0 0 420 110" fill="none" xmlns="http://www.w3.org/2000/svg">
  <defs>
    <linearGradient id="airaBookLeafLockup" x1="14" y1="18" x2="82" y2="86" gradientUnits="userSpaceOnUse">
      <stop stop-color="#8FF7CA"/>
      <stop offset="1" stop-color="#3AD89C"/>
    </linearGradient>
    <linearGradient id="ethelaOrbitLockup" x1="28" y1="22" x2="92" y2="46" gradientUnits="userSpaceOnUse">
      <stop stop-color="#6C7CFF"/>
      <stop offset="1" stop-color="#2FA9FF"/>
    </linearGradient>
  </defs>

  <g transform="translate(8 8)">
    <rect x="0" y="0" width="94" height="94" rx="28" fill="#0F172A"/>
    <path d="M26 22H42.5C46.8 22 50.4 25.6 50.4 29.9V60.9C48.1 58.8 45.2 57.8 42.1 57.8H26C23.2 57.8 21 60 21 62.8V28C21 25.2 23.2 22 26 22Z" stroke="url(#airaBookLeafLockup)" stroke-width="3.1" stroke-linejoin="round"/>
    <path d="M68 22H51.5C47.2 22 43.6 25.6 43.6 29.9V60.9C45.9 58.8 48.8 57.8 51.9 57.8H68C70.8 57.8 73 60 73 62.8V28C73 25.2 70.8 22 68 22Z" stroke="url(#airaBookLeafLockup)" stroke-width="3.1" stroke-linejoin="round"/>
    <path d="M43.7 34.2L47 30.9L50.3 34.2" stroke="url(#airaBookLeafLockup)" stroke-width="3.1" stroke-linecap="round" stroke-linejoin="round"/>
    <path d="M30 24.5C35 17.3 44.1 14.3 52.3 17.1C58 19.1 62.6 23.2 65.1 28.6" stroke="url(#ethelaOrbitLockup)" stroke-width="2.5" stroke-linecap="round"/>
    <circle cx="66.9" cy="30.8" r="2.8" fill="#2FA9FF"/>
  </g>

  <text x="122" y="53" fill="#0F172A" font-size="40" font-weight="700" letter-spacing="0.2" font-family="Poppins, Inter, Segoe UI, sans-serif">Airabook</text>
  <text x="124" y="79" fill="#3B82F6" font-size="18" font-weight="600" font-family="Poppins, Inter, Segoe UI, sans-serif">by e-thela</text>
  <path d="M124 86H238" stroke="#CBD5E1" stroke-width="1.3" stroke-linecap="round"/>
</svg>
